<?xml version="1.0" encoding="utf-8"?>
<!-- Generator: Adobe Illustrator 15.0.0, SVG Export Plug-In  -->
<!DOCTYPE svg PUBLIC "-//W3C//DTD SVG 1.1//EN" "http://www.w3.org/Graphics/SVG/1.1/DTD/svg11.dtd" [
	<!ENTITY ns_flows "http://ns.adobe.com/Flows/1.0/">
]>
<svg version="1.1"
	 xmlns="http://www.w3.org/2000/svg" xmlns:xlink="http://www.w3.org/1999/xlink" xmlns:a="http://ns.adobe.com/AdobeSVGViewerExtensions/3.0/"
	 x="0px" y="0px" width="350px" height="100px" viewBox="-37.122 -6 350 100" enable-background="new -37.122 -6 350 100"
	 xml:space="preserve">
<defs>
</defs>
<path fill="#FFFFFF" d="M75.75,50.223c-0.173,0-0.346,0-0.577-0.058c-2.481-0.289-4.271-2.54-3.982-5.021l2.712-22.45
	c0.174-1.443-0.692-2.828-2.02-3.29l-18.294-6.522c-2.367-0.865-3.579-3.404-2.771-5.771c0.866-2.367,3.405-3.578,5.771-2.77
	l18.295,6.521c5.425,1.905,8.714,7.214,8.022,12.928l-2.713,22.45C79.963,48.492,78.001,50.223,75.75,50.223z"/>
<path fill="#FFFFFF" d="M40.661,86.178c-2.021,0-4.04-0.52-5.944-1.559L11.055,71.461c-3.405-1.904-5.714-5.31-6.176-9.176
	l-4.79-39.015c-0.692-5.713,2.713-11.139,8.137-13.042l29.261-9.984c2.367-0.808,4.963,0.461,5.771,2.827
	c0.808,2.367-0.461,4.963-2.829,5.771L11.17,18.827c-1.385,0.462-2.251,1.847-2.078,3.348l4.79,39.015
	c0.115,0.98,0.692,1.847,1.559,2.366l23.662,13.158c0.923,0.521,2.078,0.521,3.001,0l25.624-14.024
	c0.866-0.461,1.501-1.385,1.617-2.366c0.288-2.481,2.539-4.271,5.021-3.981c2.482,0.288,4.271,2.539,3.982,5.02
	c-0.461,3.868-2.828,7.33-6.233,9.234L46.49,84.62C44.701,85.659,42.681,86.178,40.661,86.178z"/>
<path fill="#FFFFFF" d="M60.918,50.973L46.26,24.483l-0.058-0.059c-1.039-1.789-3.001-2.943-5.079-2.943
	c-2.077,0-4.04,1.154-5.079,2.943L21.384,50.973c-1.096,2.02-0.403,4.502,1.617,5.6c2.02,1.096,4.501,0.403,5.598-1.618l2.828-5.136
	h19.392l2.828,5.136c0.751,1.386,2.135,2.136,3.636,2.136c0.692,0,1.385-0.173,1.962-0.519
	C61.265,55.475,62.015,52.936,60.918,50.973z M35.986,41.566l5.137-9.292l5.137,9.292H35.986z"/>
<text transform="matrix(1 0 0 1 95.8706 72.9189)" fill="#FFFFFF" font-family="'SegoeUI-Semilight'" font-size="84.2653">Alain</text>
</svg>
